<?xml version="1.0" encoding="UTF-8" standalone="no"?>
<!-- Generator: Adobe Illustrator 19.0.0, SVG Export Plug-In . SVG Version: 6.00 Build 0)  -->

<svg
   xmlns:dc="http://purl.org/dc/elements/1.1/"
   xmlns:cc="http://creativecommons.org/ns#"
   xmlns:rdf="http://www.w3.org/1999/02/22-rdf-syntax-ns#"
   xmlns:svg="http://www.w3.org/2000/svg"
   xmlns="http://www.w3.org/2000/svg"
   xmlns:sodipodi="http://sodipodi.sourceforge.net/DTD/sodipodi-0.dtd"
   xmlns:inkscape="http://www.inkscape.org/namespaces/inkscape"
   version="1.1"
   id="Layer_1"
   x="0px"
   y="0px"
   viewBox="0 0 512 512"
   style="enable-background:new 0 0 512 512;"
   xml:space="preserve"
   sodipodi:docname="bottle_a2.svg"
   inkscape:version="0.92.2 5c3e80d, 2017-08-06"><metadata
     id="metadata87"><rdf:RDF><cc:Work
         rdf:about=""><dc:format>image/svg+xml</dc:format><dc:type
           rdf:resource="http://purl.org/dc/dcmitype/StillImage" /><dc:title /></cc:Work></rdf:RDF></metadata><defs
     id="defs85" /><sodipodi:namedview
     pagecolor="#ffffff"
     bordercolor="#666666"
     borderopacity="1"
     objecttolerance="10"
     gridtolerance="10"
     guidetolerance="10"
     inkscape:pageopacity="0"
     inkscape:pageshadow="2"
     inkscape:window-width="1280"
     inkscape:window-height="755"
     id="namedview83"
     showgrid="false"
     inkscape:zoom="0.74853882"
     inkscape:cx="256"
     inkscape:cy="256"
     inkscape:window-x="0"
     inkscape:window-y="1"
     inkscape:window-maximized="1"
     inkscape:current-layer="g36"
     inkscape:object-paths="false" /><g
     id="g10"
     transform="rotate(45,222.79456,255.64789)"
     style="fill:#77d9f5;fill-opacity:1"><path
       style="fill:#77d9f5;fill-opacity:1"
       d="M 476.758,212.382 200.217,75.358 l 6.072,-6.072 c 8.393,-8.393 8.393,-22.01 0,-30.403 l -3.041,-3.041 c -8.393,-8.393 -21.999,-8.393 -30.393,0 L 57.346,151.35 c -8.393,8.393 -8.393,22.01 0,30.403 l 3.041,3.041 c 8.393,8.393 21.999,8.393 30.393,0 l 6.083,-6.083 137.014,276.553 c 11.381,28.759 48.501,36.443 70.371,14.573 L 491.343,282.742 c 21.869,-21.869 14.174,-58.979 -14.585,-70.36 z"
       id="path6"
       inkscape:connector-curvature="0" /></g><path
     style="fill:#e0dddf"
     d="m 179.54673,112.19892 c -11.86949,0 -21.49039,-9.62089 -21.4911,-21.49109 V 86.4072 c 0,-11.869492 9.62868,-21.498165 21.49817,-21.498165 l 163.3551,-7.07e-4 c 11.8695,0 21.49039,9.620895 21.4911,21.491092 v 4.30063 c 0,11.86949 -9.62867,21.49817 -21.49817,21.49817 z"
     id="path18"
     inkscape:connector-curvature="0" /><rect
     x="-112.19336"
     y="246.86383"
     transform="rotate(-90)"
     style="fill:#f9f8f9;fill-opacity:0.64646463;stroke-width:0.9999904"
     width="47.285545"
     height="43.309586"
     id="rect20" /><g
     id="g36"
     transform="rotate(45,222.79456,255.64789)"><circle
       style="fill:#ceeef1;fill-opacity:1"
       cx="370.23401"
       cy="253.59398"
       r="30.091999"
       id="circle22" /><circle
       style="fill:#ceeef1;fill-opacity:1"
       cx="301.453"
       cy="433.00699"
       r="12.896"
       id="circle24" /><circle
       style="fill:#ceeef1;fill-opacity:1"
       cx="288.04578"
       cy="259.25168"
       r="18.806999"
       id="circle26" /><circle
       style="fill:#ceeef1;fill-opacity:1"
       cx="401.93799"
       cy="338.97101"
       r="9.1350002"
       id="circle28" /><circle
       style="fill:#ceeef1;fill-opacity:1"
       cx="440.93851"
       cy="266.84583"
       r="13.971"
       id="circle30" /><circle
       style="fill:#ceeef1;fill-opacity:1"
       cx="246.644"
       cy="344.88199"
       r="12.896"
       id="circle32" /><circle
       style="fill:#ceeef1;fill-opacity:1"
       cx="299.30399"
       cy="371.75"
       r="11.822"
       id="circle34" /><circle
       id="circle864"
       r="31.981298"
       cy="234.22865"
       cx="177.05318"
       style="fill:#ceeef1;fill-opacity:1" /></g><path
     sodipodi:nodetypes="ccccc"
     style="fill:#e0dddf;fill-opacity:1"
     d="M 389.65597,274.50352 334.31403,112.19892 188.1501,112.19822 132.66984,274.504 Z"
     id="path954"
     inkscape:connector-curvature="0" /><g
     id="g52"
     transform="rotate(45,222.79456,255.64789)" /><g
     id="g54"
     transform="rotate(45,222.79456,255.64789)" /><g
     id="g56"
     transform="rotate(45,222.79456,255.64789)" /><g
     id="g58"
     transform="rotate(45,222.79456,255.64789)" /><g
     id="g60"
     transform="rotate(45,222.79456,255.64789)" /><g
     id="g62"
     transform="rotate(45,222.79456,255.64789)" /><g
     id="g64"
     transform="rotate(45,222.79456,255.64789)" /><g
     id="g66"
     transform="rotate(45,222.79456,255.64789)" /><g
     id="g68"
     transform="rotate(45,222.79456,255.64789)" /><g
     id="g70"
     transform="rotate(45,222.79456,255.64789)" /><path
     inkscape:connector-curvature="0"
     id="path958"
     d="m 341.1107,133.299 -6.79667,-21.10008 -146.16393,-7e-4 -98.668969,292.43603 c -12.288102,28.38326 8.526294,60.06447 39.455149,60.06447 l 14.40607,0.20741 c -24.60937,0.37197 -26.64174,-24.36046 -21.04371,-39.30826 L 219.36733,133.2995 Z"
     style="fill:#111111;fill-opacity:0.22335026"
     sodipodi:nodetypes="ccccccccc" /><path
     d="m 233.40069,372.30886 17.74202,-0.005 c 4.45265,-7.1e-4 8.06031,-3.6112 8.05748,-8.06173 -0.001,-4.45335 -3.6119,-8.06101 -8.06173,-8.05748 l -17.73777,0.005 V 337.9166 l 34.93108,-0.006 c 4.45123,-7.1e-4 8.0596,-3.61049 8.05818,-8.06102 -10e-4,-4.45335 -3.61119,-8.06031 -8.06172,-8.05889 l -34.92613,0.006 -7e-4,-18.27234 h 17.73282 c 4.45195,0 8.0596,-3.60766 8.0596,-8.05961 0,-4.45194 -3.60695,-8.06031 -8.06031,-8.06031 l -17.73141,-10e-4 v -18.27164 l 34.92754,0.006 c 4.45124,7.1e-4 8.06031,-3.60695 8.06102,-8.05819 7.1e-4,-4.45265 -3.60695,-8.06031 -8.05889,-8.06172 l -34.92896,-0.006 v -18.26316 l 17.74202,-0.005 c 4.45265,-7.1e-4 8.06031,-3.61119 8.05748,-8.06172 0,-4.45195 -3.60978,-8.06031 -8.06172,-8.05748 l -17.73778,0.005 v -18.27306 l 34.93108,-0.006 c 4.45123,-7.1e-4 8.0596,-3.61049 8.05819,-8.06102 -0.001,-4.45336 -3.6112,-8.06031 -8.06173,-8.0589 l -34.92683,0.006 v -22.03062 c -7.1e-4,-4.45265 -3.60907,-8.06102 -8.06031,-8.06031 -4.45195,0 -8.06102,3.60907 -8.0596,8.0596 l 7e-4,270.82402 c -7e-4,2.22527 0.90227,4.24123 2.36033,5.69928 1.45876,1.45876 3.47401,2.36103 5.69998,2.36103 4.45195,0 8.06102,-3.60907 8.0589,-8.06031 v -26.33236 l 34.92754,0.006 c 4.45124,7.1e-4 8.06031,-3.60695 8.06102,-8.05819 7e-4,-4.45265 -3.60696,-8.06031 -8.0589,-8.06172 l -34.92895,-0.006 z"
     id="path40"
     inkscape:connector-curvature="0"
     style="fill:#404040;fill-opacity:1" /><path
     d="m 375.91453,376.671 c 0.37901,1.42411 1.11228,2.6566 2.08525,3.62958 1.96435,1.96434 4.89318,2.85954 7.77182,2.09516 4.30274,-1.14198 6.8653,-5.55433 5.72473,-9.85707 -0.78489,-2.95712 -1.56978,-5.91566 -2.39638,-8.86076 -1.20138,-4.28436 -5.6512,-6.78681 -9.93839,-5.58261 -4.28577,1.20279 -6.7854,5.65262 -5.58261,9.93839 0.8054,2.87156 1.57119,5.75444 2.33558,8.63731 z"
     id="path44"
     inkscape:connector-curvature="0"
     style="fill:#404040;fill-opacity:1" /><path
     d="m 323.3171,160.68948 c -1.33361,-4.24547 -5.85909,-6.60862 -10.10668,-5.2729 -4.24618,1.33431 -6.60791,5.85979 -5.2729,10.10668 6.7253,21.39634 13.80485,42.88249 20.65247,63.66153 10.19436,30.9338 20.7352,62.92119 30.30023,95.22112 0.39528,1.33431 1.1038,2.48831 2.02233,3.40684 2.02232,2.02232 5.06006,2.90197 7.99455,2.03364 4.2688,-1.2636 6.70337,-5.74878 5.43977,-10.01758 -9.63645,-32.53399 -20.21689,-64.64017 -30.4466,-95.68994 -6.83065,-20.72671 -13.89182,-42.15912 -20.58317,-63.44939 z"
     id="path46"
     inkscape:connector-curvature="0"
     style="fill:#404040;fill-opacity:1" /><path
     d="m 436.18831,449.73917 c 9.40523,-14.31962 11.00824,-32.23275 4.31406,-47.98497 l -32.14861,-95.29749 c -1.4227,-4.21718 -5.99627,-6.48275 -10.21487,-5.06147 -4.21718,1.4227 -6.48275,5.99627 -5.06076,10.21416 l 32.25185,95.60296 c 0.0721,0.21213 0.15203,0.42072 0.24112,0.62579 4.75954,10.99338 3.71726,23.04107 -2.85671,33.05299 -6.57327,10.00839 -17.21169,15.74939 -29.18795,15.74869 l -264.59158,-0.002 c -11.97981,0 -22.62247,-5.74242 -29.199976,-15.75647 -6.57397,-10.01051 -7.61554,-22.05466 -2.85883,-33.04522 0.0884,-0.20435 0.169,-0.41365 0.24112,-0.62579 l 96.818476,-286.951 h 134.58929 l 47.30049,140.21008 c 0.41012,1.21623 1.08329,2.26982 1.93252,3.11905 2.09799,2.09799 5.27926,2.95429 8.28235,1.94242 4.21789,-1.4234 6.48275,-5.99626 5.06076,-10.21415 L 345.49833,120.13902 c 15.08471,-1.32158 26.96057,-14.01627 26.96127,-29.43756 v -4.30204 c -7e-4,-16.293857 -13.25683,-29.548574 -29.5514,-29.551402 l -163.35298,0.0014 c -7.89414,0 -15.31735,3.0745 -20.90067,8.657815 -5.58331,5.583315 -8.65852,13.005815 -8.65852,20.899957 v 4.30062 c 0,7.89414 3.07379,15.31523 8.65428,20.89571 4.96743,4.96743 11.39291,7.94081 18.31195,8.53832 L 81.945493,401.75278 c -6.692765,15.74939 -5.087633,33.65899 4.315471,47.97791 1.94525,2.96207 4.16345,5.67806 6.61074,8.12536 9.467456,9.46604 22.355886,14.90298 36.063156,14.90228 l 264.59299,7e-4 c 17.24633,0 33.19371,-8.60478 42.66046,-23.01986 z M 170.05029,100.20498 c -2.53639,-2.53639 -3.93364,-5.90929 -3.93293,-9.49645 l -7.1e-4,-4.30133 c 7.1e-4,-3.58715 1.39937,-6.961464 3.93859,-9.500684 2.53922,-2.539221 5.91282,-3.937171 9.50068,-3.937171 l 163.35228,-7.07e-4 c 3.70453,7.07e-4 7.06116,1.506137 9.49361,3.938585 2.43104,2.431033 3.93717,5.789787 3.93788,9.491497 v 4.30062 c 0,7.40907 -6.02879,13.43786 -13.43715,13.43857 l -8.47043,-7.1e-4 c -0.0785,-7.1e-4 -0.15698,-0.001 -0.23618,0 l -154.64991,10e-4 c -3.58786,0 -6.95934,-1.39724 -9.49573,-3.93364 z"
     id="path38"
     inkscape:connector-curvature="0"
     style="fill:#404040;fill-opacity:1" /><g
     id="g72"
     transform="rotate(45,222.79456,255.64789)" /><g
     id="g74"
     transform="rotate(45,222.79456,255.64789)" /><g
     id="g76"
     transform="rotate(45,222.79456,255.64789)" /><g
     id="g78"
     transform="rotate(45,222.79456,255.64789)" /><g
     id="g80"
     transform="rotate(45,222.79456,255.64789)" /></svg>